<svg width="154" height="39" viewBox="0 0 154 39" fill="none" xmlns="http://www.w3.org/2000/svg">
<rect width="154" height="39" rx="15" fill="url(#paint0_linear_544_939)"/>
<path d="M30.0299 17.8361C29.7419 17.2814 29.3419 16.8654 28.8299 16.5881C28.3179 16.3001 27.7259 16.1561 27.0539 16.1561C26.3179 16.1561 25.6619 16.3214 25.0859 16.6521C24.5099 16.9828 24.0566 17.4521 23.7259 18.0601C23.4059 18.6681 23.2459 19.3721 23.2459 20.1721C23.2459 20.9721 23.4059 21.6814 23.7259 22.3001C24.0566 22.9081 24.5099 23.3774 25.0859 23.7081C25.6619 24.0388 26.3179 24.2041 27.0539 24.2041C28.0459 24.2041 28.8512 23.9268 29.4699 23.3721C30.0886 22.8174 30.4672 22.0654 30.6059 21.1161H26.4299V19.6601H32.5579V21.0841C32.4406 21.9481 32.1312 22.7428 31.6299 23.4681C31.1392 24.1934 30.4939 24.7748 29.6939 25.2121C28.9046 25.6388 28.0246 25.8521 27.0539 25.8521C26.0086 25.8521 25.0539 25.6121 24.1899 25.1321C23.3259 24.6414 22.6379 23.9641 22.1259 23.1001C21.6245 22.2361 21.3739 21.2601 21.3739 20.1721C21.3739 19.0841 21.6245 18.1081 22.1259 17.2441C22.6379 16.3801 23.3259 15.7081 24.1899 15.2281C25.0646 14.7374 26.0192 14.4921 27.0539 14.4921C28.2379 14.4921 29.2886 14.7854 30.2059 15.3721C31.1339 15.9481 31.8059 16.7694 32.2219 17.8361H30.0299ZM42.4369 21.1321C42.4369 21.4628 42.4156 21.7614 42.3729 22.0281H35.6369C35.6902 22.7321 35.9516 23.2974 36.4209 23.7241C36.8902 24.1508 37.4662 24.3641 38.1489 24.3641C39.1302 24.3641 39.8236 23.9534 40.2289 23.1321H42.1969C41.9302 23.9428 41.4449 24.6094 40.7409 25.1321C40.0476 25.6441 39.1836 25.9001 38.1489 25.9001C37.3062 25.9001 36.5489 25.7134 35.8769 25.3401C35.2155 24.9561 34.6929 24.4228 34.3089 23.7401C33.9355 23.0468 33.7489 22.2468 33.7489 21.3401C33.7489 20.4334 33.9302 19.6388 34.2929 18.9561C34.6662 18.2628 35.1836 17.7294 35.8449 17.3561C36.5169 16.9828 37.2849 16.7961 38.1489 16.7961C38.9809 16.7961 39.7222 16.9774 40.3729 17.3401C41.0236 17.7028 41.5302 18.2148 41.8929 18.8761C42.2556 19.5268 42.4369 20.2788 42.4369 21.1321ZM40.5329 20.5561C40.5222 19.8841 40.2822 19.3454 39.8129 18.9401C39.3436 18.5348 38.7622 18.3321 38.0689 18.3321C37.4396 18.3321 36.9009 18.5348 36.4529 18.9401C36.0049 19.3348 35.7382 19.8734 35.6529 20.5561H40.5329ZM46.3599 18.4281V23.3081C46.3599 23.6388 46.4346 23.8788 46.5839 24.0281C46.7439 24.1668 47.0106 24.2361 47.3839 24.2361H48.5039V25.7561H47.0639C46.2426 25.7561 45.6132 25.5641 45.1759 25.1801C44.7385 24.7961 44.5199 24.1721 44.5199 23.3081V18.4281H43.4799V16.9401H44.5199V14.7481H46.3599V16.9401H48.5039V18.4281H46.3599ZM58.0053 25.8681C57.2586 25.8681 56.5866 25.7401 55.9893 25.4841C55.3919 25.2174 54.9226 24.8441 54.5813 24.3641C54.2399 23.8841 54.0693 23.3241 54.0693 22.6841H56.0213C56.0639 23.1641 56.2506 23.5588 56.5813 23.8681C56.9226 24.1774 57.3973 24.3321 58.0053 24.3321C58.6346 24.3321 59.1253 24.1828 59.4773 23.8841C59.8293 23.5748 60.0053 23.1801 60.0053 22.7001C60.0053 22.3268 59.8933 22.0228 59.6693 21.7881C59.4559 21.5534 59.1839 21.3721 58.8533 21.2441C58.5333 21.1161 58.0853 20.9774 57.5093 20.8281C56.7839 20.6361 56.1919 20.4441 55.7333 20.2521C55.2853 20.0494 54.9013 19.7401 54.5813 19.3241C54.2613 18.9081 54.1013 18.3534 54.1013 17.6601C54.1013 17.0201 54.2613 16.4601 54.5813 15.9801C54.9013 15.5001 55.3493 15.1321 55.9253 14.8761C56.5013 14.6201 57.1679 14.4921 57.9253 14.4921C59.0026 14.4921 59.8826 14.7641 60.5653 15.3081C61.2586 15.8414 61.6426 16.5774 61.7173 17.5161H59.7013C59.6693 17.1108 59.4773 16.7641 59.1253 16.4761C58.7733 16.1881 58.3093 16.0441 57.7333 16.0441C57.2106 16.0441 56.7839 16.1774 56.4533 16.4441C56.1226 16.7108 55.9573 17.0948 55.9573 17.5961C55.9573 17.9374 56.0586 18.2201 56.2613 18.4441C56.4746 18.6574 56.7413 18.8281 57.0613 18.9561C57.3813 19.0841 57.8186 19.2228 58.3733 19.3721C59.1093 19.5748 59.7066 19.7774 60.1653 19.9801C60.6346 20.1828 61.0293 20.4974 61.3493 20.9241C61.6799 21.3401 61.8453 21.9001 61.8453 22.6041C61.8453 23.1694 61.6906 23.7028 61.3813 24.2041C61.0826 24.7054 60.6399 25.1108 60.0533 25.4201C59.4773 25.7188 58.7946 25.8681 58.0053 25.8681ZM66.1255 18.4281V23.3081C66.1255 23.6388 66.2002 23.8788 66.3495 24.0281C66.5095 24.1668 66.7762 24.2361 67.1495 24.2361H68.2695V25.7561H66.8295C66.0082 25.7561 65.3788 25.5641 64.9415 25.1801C64.5042 24.7961 64.2855 24.1721 64.2855 23.3081V18.4281H63.2455V16.9401H64.2855V14.7481H66.1255V16.9401H68.2695V18.4281H66.1255ZM69.3426 21.3081C69.3426 20.4228 69.524 19.6388 69.8866 18.9561C70.26 18.2734 70.7613 17.7454 71.3906 17.3721C72.0306 16.9881 72.7346 16.7961 73.5026 16.7961C74.196 16.7961 74.7986 16.9348 75.3106 17.2121C75.8333 17.4788 76.2493 17.8148 76.5586 18.2201V16.9401H78.3986V25.7561H76.5586V24.4441C76.2493 24.8601 75.828 25.2068 75.2946 25.4841C74.7613 25.7614 74.1533 25.9001 73.4706 25.9001C72.7133 25.9001 72.02 25.7081 71.3906 25.3241C70.7613 24.9294 70.26 24.3854 69.8866 23.6921C69.524 22.9881 69.3426 22.1934 69.3426 21.3081ZM76.5586 21.3401C76.5586 20.7321 76.4306 20.2041 76.1746 19.7561C75.9293 19.3081 75.604 18.9668 75.1986 18.7321C74.7933 18.4974 74.356 18.3801 73.8866 18.3801C73.4173 18.3801 72.98 18.4974 72.5746 18.7321C72.1693 18.9561 71.8386 19.2921 71.5826 19.7401C71.3373 20.1774 71.2146 20.7001 71.2146 21.3081C71.2146 21.9161 71.3373 22.4494 71.5826 22.9081C71.8386 23.3668 72.1693 23.7188 72.5746 23.9641C72.9906 24.1988 73.428 24.3161 73.8866 24.3161C74.356 24.3161 74.7933 24.1988 75.1986 23.9641C75.604 23.7294 75.9293 23.3881 76.1746 22.9401C76.4306 22.4814 76.5586 21.9481 76.5586 21.3401ZM82.6184 18.2201C82.8851 17.7721 83.2371 17.4254 83.6744 17.1801C84.1224 16.9241 84.6504 16.7961 85.2584 16.7961V18.6841H84.7944C84.0797 18.6841 83.5357 18.8654 83.1624 19.2281C82.7997 19.5908 82.6184 20.2201 82.6184 21.1161V25.7561H80.7944V16.9401H82.6184V18.2201ZM89.063 18.4281V23.3081C89.063 23.6388 89.1377 23.8788 89.287 24.0281C89.447 24.1668 89.7137 24.2361 90.087 24.2361H91.207V25.7561H89.767C88.9457 25.7561 88.3163 25.5641 87.879 25.1801C87.4417 24.7961 87.223 24.1721 87.223 23.3081V18.4281H86.183V16.9401H87.223V14.7481H89.063V16.9401H91.207V18.4281H89.063ZM100.968 21.1321C100.968 21.4628 100.947 21.7614 100.904 22.0281H94.1681C94.2215 22.7321 94.4828 23.2974 94.9521 23.7241C95.4215 24.1508 95.9975 24.3641 96.6801 24.3641C97.6615 24.3641 98.3548 23.9534 98.7601 23.1321H100.728C100.461 23.9428 99.9761 24.6094 99.2721 25.1321C98.5788 25.6441 97.7148 25.9001 96.6801 25.9001C95.8375 25.9001 95.0801 25.7134 94.4081 25.3401C93.7468 24.9561 93.2241 24.4228 92.8401 23.7401C92.4668 23.0468 92.2801 22.2468 92.2801 21.3401C92.2801 20.4334 92.4615 19.6388 92.8241 18.9561C93.1975 18.2628 93.7148 17.7294 94.3761 17.3561C95.0481 16.9828 95.8161 16.7961 96.6801 16.7961C97.5121 16.7961 98.2535 16.9774 98.9041 17.3401C99.5548 17.7028 100.061 18.2148 100.424 18.8761C100.787 19.5268 100.968 20.2788 100.968 21.1321ZM99.0641 20.5561C99.0535 19.8841 98.8135 19.3454 98.3441 18.9401C97.8748 18.5348 97.2935 18.3321 96.6001 18.3321C95.9708 18.3321 95.4321 18.5348 94.9841 18.9401C94.5361 19.3348 94.2695 19.8734 94.1841 20.5561H99.0641ZM102.155 21.3081C102.155 20.4228 102.336 19.6388 102.699 18.9561C103.072 18.2734 103.574 17.7454 104.203 17.3721C104.843 16.9881 105.552 16.7961 106.331 16.7961C106.907 16.7961 107.472 16.9241 108.027 17.1801C108.592 17.4254 109.04 17.7561 109.371 18.1721V13.9161H111.211V25.7561H109.371V24.4281C109.072 24.8548 108.656 25.2068 108.123 25.4841C107.6 25.7614 106.998 25.9001 106.315 25.9001C105.547 25.9001 104.843 25.7081 104.203 25.3241C103.574 24.9294 103.072 24.3854 102.699 23.6921C102.336 22.9881 102.155 22.1934 102.155 21.3081ZM109.371 21.3401C109.371 20.7321 109.243 20.2041 108.987 19.7561C108.742 19.3081 108.416 18.9668 108.011 18.7321C107.606 18.4974 107.168 18.3801 106.699 18.3801C106.23 18.3801 105.792 18.4974 105.387 18.7321C104.982 18.9561 104.651 19.2921 104.395 19.7401C104.15 20.1774 104.027 20.7001 104.027 21.3081C104.027 21.9161 104.15 22.4494 104.395 22.9081C104.651 23.3668 104.982 23.7188 105.387 23.9641C105.803 24.1988 106.24 24.3161 106.699 24.3161C107.168 24.3161 107.606 24.1988 108.011 23.9641C108.416 23.7294 108.742 23.3881 108.987 22.9401C109.243 22.4814 109.371 21.9481 109.371 21.3401Z" fill="white"/>
<path d="M124.865 20.9268H138.392M138.392 20.9268L131.862 16.1707M138.392 20.9268L131.862 25.6828" stroke="white" stroke-width="1.95"/>
<defs>
<linearGradient id="paint0_linear_544_939" x1="59.8311" y1="-54.6951" x2="91.441" y2="83.6173" gradientUnits="userSpaceOnUse">
<stop offset="0.844875" stop-color="#00A5FF"/>
</linearGradient>
</defs>
</svg>
