<svg width="77" height="39" viewBox="0 0 77 39" fill="none" xmlns="http://www.w3.org/2000/svg">
<rect width="77" height="39" rx="15" fill="url(#paint0_linear_544_932)"/>
<path d="M16.753 25.8681C15.9744 25.8681 15.2704 25.7348 14.641 25.4681C14.0224 25.2014 13.5317 24.8174 13.169 24.3161C12.8064 23.8148 12.6197 23.2228 12.609 22.5401H15.009C15.041 22.9988 15.201 23.3614 15.489 23.6281C15.7877 23.8948 16.193 24.0281 16.705 24.0281C17.2277 24.0281 17.6384 23.9054 17.937 23.6601C18.2357 23.4041 18.385 23.0734 18.385 22.6681C18.385 22.3374 18.2837 22.0654 18.081 21.8521C17.8784 21.6388 17.6224 21.4734 17.313 21.3561C17.0144 21.2281 16.5984 21.0894 16.065 20.9401C15.3397 20.7268 14.7477 20.5188 14.289 20.3161C13.841 20.1028 13.4517 19.7881 13.121 19.3721C12.801 18.9454 12.641 18.3801 12.641 17.6761C12.641 17.0148 12.8064 16.4388 13.137 15.9481C13.4677 15.4574 13.9317 15.0841 14.529 14.8281C15.1264 14.5614 15.809 14.4281 16.577 14.4281C17.729 14.4281 18.6624 14.7108 19.377 15.2761C20.1024 15.8308 20.5024 16.6094 20.577 17.6121H18.113C18.0917 17.2281 17.9264 16.9134 17.617 16.6681C17.3184 16.4121 16.9184 16.2841 16.417 16.2841C15.9797 16.2841 15.6277 16.3961 15.361 16.6201C15.105 16.8441 14.977 17.1694 14.977 17.5961C14.977 17.8948 15.073 18.1454 15.265 18.3481C15.4677 18.5401 15.713 18.7001 16.001 18.8281C16.2997 18.9454 16.7157 19.0841 17.249 19.2441C17.9744 19.4574 18.5664 19.6708 19.025 19.8841C19.4837 20.0974 19.8784 20.4174 20.209 20.8441C20.5397 21.2708 20.705 21.8308 20.705 22.5241C20.705 23.1214 20.5504 23.6761 20.241 24.1881C19.9317 24.7001 19.4784 25.1108 18.881 25.4201C18.2837 25.7188 17.5744 25.8681 16.753 25.8681ZM23.783 15.8361C23.3884 15.8361 23.0577 15.7134 22.791 15.4681C22.535 15.2121 22.407 14.8974 22.407 14.5241C22.407 14.1508 22.535 13.8414 22.791 13.5961C23.0577 13.3401 23.3884 13.2121 23.783 13.2121C24.1777 13.2121 24.503 13.3401 24.759 13.5961C25.0257 13.8414 25.159 14.1508 25.159 14.5241C25.159 14.8974 25.0257 15.2121 24.759 15.4681C24.503 15.7134 24.1777 15.8361 23.783 15.8361ZM24.887 16.8921V25.7561H22.647V16.8921H24.887ZM30.5722 16.7481C31.2335 16.7481 31.8148 16.8814 32.3162 17.1481C32.8175 17.4041 33.2122 17.7401 33.5002 18.1561V16.8921H35.7562V25.8201C35.7562 26.6414 35.5908 27.3721 35.2602 28.0121C34.9295 28.6628 34.4335 29.1748 33.7722 29.5481C33.1108 29.9321 32.3108 30.1241 31.3722 30.1241C30.1135 30.1241 29.0788 29.8308 28.2682 29.2441C27.4682 28.6574 27.0148 27.8574 26.9082 26.8441H29.1322C29.2495 27.2494 29.5002 27.5694 29.8842 27.8041C30.2788 28.0494 30.7535 28.1721 31.3082 28.1721C31.9588 28.1721 32.4868 27.9748 32.8922 27.5801C33.2975 27.1961 33.5002 26.6094 33.5002 25.8201V24.4441C33.2122 24.8601 32.8122 25.2068 32.3002 25.4841C31.7988 25.7614 31.2228 25.9001 30.5722 25.9001C29.8255 25.9001 29.1428 25.7081 28.5242 25.3241C27.9055 24.9401 27.4148 24.4014 27.0522 23.7081C26.7002 23.0041 26.5242 22.1988 26.5242 21.2921C26.5242 20.3961 26.7002 19.6014 27.0522 18.9081C27.4148 18.2148 27.9002 17.6814 28.5082 17.3081C29.1268 16.9348 29.8148 16.7481 30.5722 16.7481ZM33.5002 21.3241C33.5002 20.7801 33.3935 20.3161 33.1802 19.9321C32.9668 19.5374 32.6788 19.2388 32.3162 19.0361C31.9535 18.8228 31.5642 18.7161 31.1482 18.7161C30.7322 18.7161 30.3482 18.8174 29.9962 19.0201C29.6442 19.2228 29.3562 19.5214 29.1322 19.9161C28.9188 20.3001 28.8122 20.7588 28.8122 21.2921C28.8122 21.8254 28.9188 22.2948 29.1322 22.7001C29.3562 23.0948 29.6442 23.3988 29.9962 23.6121C30.3588 23.8254 30.7428 23.9321 31.1482 23.9321C31.5642 23.9321 31.9535 23.8308 32.3162 23.6281C32.6788 23.4148 32.9668 23.1161 33.1802 22.7321C33.3935 22.3374 33.5002 21.8681 33.5002 21.3241ZM42.8559 16.7641C43.9119 16.7641 44.7652 17.1001 45.4159 17.7721C46.0666 18.4334 46.3919 19.3614 46.3919 20.5561V25.7561H44.1519V20.8601C44.1519 20.1561 43.9759 19.6174 43.6239 19.2441C43.2719 18.8601 42.7919 18.6681 42.1839 18.6681C41.5652 18.6681 41.0746 18.8601 40.7119 19.2441C40.3599 19.6174 40.1839 20.1561 40.1839 20.8601V25.7561H37.9439V16.8921H40.1839V17.9961C40.4826 17.6121 40.8612 17.3134 41.3199 17.1001C41.7892 16.8761 42.3012 16.7641 42.8559 16.7641ZM53.4705 15.8361C53.0759 15.8361 52.7452 15.7134 52.4785 15.4681C52.2225 15.2121 52.0945 14.8974 52.0945 14.5241C52.0945 14.1508 52.2225 13.8414 52.4785 13.5961C52.7452 13.3401 53.0759 13.2121 53.4705 13.2121C53.8652 13.2121 54.1905 13.3401 54.4465 13.5961C54.7132 13.8414 54.8465 14.1508 54.8465 14.5241C54.8465 14.8974 54.7132 15.2121 54.4465 15.4681C54.1905 15.7134 53.8652 15.8361 53.4705 15.8361ZM54.5745 16.8921V25.7561H52.3345V16.8921H54.5745ZM61.6997 16.7641C62.7557 16.7641 63.609 17.1001 64.2597 17.7721C64.9103 18.4334 65.2357 19.3614 65.2357 20.5561V25.7561H62.9957V20.8601C62.9957 20.1561 62.8197 19.6174 62.4677 19.2441C62.1157 18.8601 61.6357 18.6681 61.0277 18.6681C60.409 18.6681 59.9183 18.8601 59.5557 19.2441C59.2037 19.6174 59.0277 20.1561 59.0277 20.8601V25.7561H56.7877V16.8921H59.0277V17.9961C59.3263 17.6121 59.705 17.3134 60.1637 17.1001C60.633 16.8761 61.145 16.7641 61.6997 16.7641Z" fill="#00A5FF"/>
<defs>
<linearGradient id="paint0_linear_544_932" x1="29.9155" y1="-54.6951" x2="84.9413" y2="65.6903" gradientUnits="userSpaceOnUse">
<stop offset="0.844875" stop-color="#FCFEFF"/>
</linearGradient>
</defs>
</svg>
